<?xml version="1.0" encoding="iso-8859-1"?>
<!-- Generator: Adobe Illustrator 17.0.0, SVG Export Plug-In . SVG Version: 6.00 Build 0)  -->
<!DOCTYPE svg PUBLIC "-//W3C//DTD SVG 1.1//EN" "http://www.w3.org/Graphics/SVG/1.1/DTD/svg11.dtd">
<svg version="1.1" id="Layer_1" xmlns="http://www.w3.org/2000/svg" xmlns:xlink="http://www.w3.org/1999/xlink" x="0px" y="0px"
	 width="649.026px" height="648px" viewBox="0 0 649.026 648" style="enable-background:new 0 0 649.026 648;" xml:space="preserve"
	>
<g>
	<g>
		<path style="fill:#924325;" d="M647.106,233.434L368.853,40.31c-2.515-21.226-19.066-37.785-39.949-39.882L328.44,0l-0.339,0.382
			C326.902,0.238,325.749,0,324.526,0c-1.232,0-2.376,0.238-3.575,0.382L320.588,0l-0.442,0.428
			c-20.895,2.097-37.431,18.656-39.949,39.882L1.922,233.434H0V648h649.026V233.434H647.106z M324.526,24.655
			c11.424,0,20.698,9.468,20.698,21.176c0,11.659-9.274,21.13-20.698,21.13c-11.438,0-20.719-9.471-20.719-21.13
			C303.807,34.123,313.088,24.655,324.526,24.655z M583.538,597.65H458.277H190.763H65.512V283.786h518.026V597.65z M21.709,233.434
			L281.643,58.583c5.451,19.04,22.476,33.03,42.883,33.03c20.395,0,37.41-13.99,42.861-33.03L627.34,233.434L21.709,233.434
			L21.709,233.434z M151.434,507.796c35.987,0,65.512-26.507,65.512-75.86c0-43.022-24.914-73.147-63.638-73.147
			c-37.667,0-65.303,29.885-65.303,75.718C88.005,478.1,113.952,507.796,151.434,507.796z M152.678,374.016
			c30.363,0,45.002,29.887,45.002,58.727c0,32.746-16.316,59.919-45.199,59.919c-28.898,0-45.216-27.603-45.216-58.634
			C107.266,402.668,122.327,374.016,152.678,374.016z M258.884,447.735c4.192,1.047,9.214,1.288,14.665,1.288
			c17.796,0,33.285-5.331,43.113-15.801c7.119-7.522,10.881-17.752,10.881-30.791c0-12.851-4.812-23.319-12.335-30.173
			c-8.375-7.707-21.57-11.991-39.565-11.991c-14.653,0-26.183,1.281-34.964,2.806v142.393h18.204L258.884,447.735L258.884,447.735z
			 M258.884,376.541c3.145-0.855,9.214-1.475,17.18-1.475c19.869,0,33.273,9.185,33.273,28.41c0,19.465-13.404,30.553-35.37,30.553
			c-6.069,0-11.097-0.38-15.083-1.473V376.541z M431.429,489.808h-61.12v-51.923h54.648v-15.371h-54.648v-45.547h57.966v-15.655
			h-76.391v144.154h79.545L431.429,489.808L431.429,489.808z M472.289,443.881c0-23.939-0.211-41.213-1.247-59.439l0.629-0.192
			c6.919,15.559,16.316,32.026,26.159,48.065l44.805,73.15h18.413V361.311h-17.154v60.296c0,22.512,0.408,40.029,2.083,59.253
			l-0.617,0.235c-6.508-14.706-14.872-29.933-25.121-46.876l-45.016-72.909h-20.078v144.154h17.144L472.289,443.881L472.289,443.881
			z"/>
	</g>
</g>
</svg>
